<svg xmlns="http://www.w3.org/2000/svg" width="958" height="960"><path d="M412 37.473c-28.511 4.855-43.455 10.105-59.08 20.758-9.587 6.536-10.067 6.526-2.92-.062 3.575-3.296 6.18-6.314 5.789-6.709-1.073-1.079-15.355 4.932-33.476 14.091-49.248 24.892-87.568 60.369-113.258 104.854-7.756 13.43-17.014 33.951-16.844 37.334.049.968-1.749 4.741-3.994 8.382-8.048 13.053-13.775 31.123-18.185 57.379-4.431 26.377-5.116 57.472-1.564 71 3.107 11.832 10.951 23.972 17.896 27.693 1.777.953 1.83.58 1.153-7.978-.409-5.162-.324-9.216.199-9.539.5-.309 1.73 1.855 2.734 4.809 4.177 12.288 13.911 16.299 19.931 8.214 3.236-4.347 3.494-15.758.562-24.878-3.096-9.626-7.925-14.821-13.779-14.821-3.637 0-4.423.428-6.405 3.488-1.242 1.918-2.597 3.493-3.009 3.5-.87.014-.811-15.263.112-28.944l.638-9.455 7.344 9.696c8.119 10.718 11.695 14.13 17.656 16.848 6.473 2.95 8.326 2.514 10.535-2.479 4.368-9.874 5.607-19.473 6.538-50.654.55-18.418 1.66-31.566 2.757-32.663.219-.219 4.847 1.844 10.284 4.584 13.454 6.781 22.307 9.083 34.866 9.064 12.634-.018 14.304-.83 17.52-8.512 2.489-5.947 2.5-6.115 2.562-38.735.036-19.014.455-33.136 1-33.655.553-.527 3.606-.326 7.438.489 11.631 2.473 36.521 3.7 50.623 2.495 17.888-1.529 20.046-2.221 21.339-6.845 3.411-12.2 1.563-35.211-4.058-50.515-1.657-4.514-3.282-9.052-3.609-10.086-.57-1.799-.009-1.848 13.305-1.167 7.645.391 18.175 1.113 23.4 1.603 20.572 1.93 38.629.632 48.488-3.488l3.795-1.585-.646-6.187c-.933-8.927-3.763-13.836-14.309-24.823l-9.362-9.754 19.767-.745c10.872-.409 28.597-.516 39.39-.237 18.86.488 19.604.434 19.13-1.377-.661-2.528-4.689-5.798-11.568-9.393-3.124-1.632-5.681-3.305-5.683-3.718-.001-.413 1.771-.75 3.939-.75s4.178-.383 4.467-.852c.973-1.574-11.394-4.484-23.908-5.625-3.85-.351-11.435-1.062-16.856-1.58-16.995-1.626-37.631-1.026-52.644 1.53m3.75 4.66c-2.062.586-3.75 1.439-3.75 1.895 0 1.823 27.447 5.767 52 7.473 4.675.325 13.815 1.068 20.312 1.65 6.496.582 12.049.821 12.34.53.814-.814-17.851-6.585-30.152-9.324-8.745-1.947-14.69-2.535-29-2.869-11.048-.258-19.448-.008-21.75.645M512 45.526c0 .84 1.954 3.481 4.343 5.87 4.662 4.662 12.102 8.022 21.657 9.779 3.025.557 6.149 1.214 6.942 1.461.838.26-3.985 4.047-11.5 9.029C493.365 98.233 458.221 126.371 395 182.506c-24.732 21.96-37.764 33.411-40.24 35.356-1.605 1.26-1.652 1.127-.636-1.788.604-1.731.924-6.219.712-9.971-.476-8.416-3.31-12.665-11.004-16.5-4.13-2.057-6.689-2.603-12.213-2.603-13.441 0-20.474 6.237-21.384 18.966-.438 6.119-.172 7.643 2.173 12.436 4.46 9.116 12.909 13.464 23.945 12.325l5.156-.532-29.537 29.653c-42.609 42.776-68.365 71.195-94.82 104.622-35.315 44.622-34.633 43.286-29.648 58.136 6.895 20.539 23.656 45.414 41.302 61.296 6.397 5.757 6.567 6.026 3.836 6.061-2.613.034-2.8.273-2.173 2.787 2.661 10.676 14.629 22.125 25.781 24.662 2.1.478 2.75.254 2.75-.948 0-3.619-4.23-10.378-9.847-15.737-3.303-3.15-5.7-5.722-5.329-5.716.372.006 2.885.681 5.585 1.5s6.412 1.489 8.25 1.489c3.246 0 3.341-.117 3.341-4.106 0-5.775-2.307-14.067-8.734-31.394-5.49-14.801-8.525-24.575-7.843-25.257.193-.192 6.186 2.108 13.32 5.111 19.022 8.009 26.658 9.956 39.455 10.059 6.162.05 11.139-.352 11.736-.948 2.665-2.661 4.121-22.667 2.617-35.965-.374-3.3-1.984-13.2-3.58-22-4.346-23.976-4.828-26.965-4.417-27.383.208-.21 7.031 1.285 15.162 3.322 28.23 7.072 32.529 7.747 52.817 8.296l19.033.514 1.349-2.875c7.584-16.161 8.342-36.457 3.009-80.621-1.245-10.311-2.068-18.942-1.829-19.181.238-.239 3.577.453 7.419 1.537 23.954 6.761 59.664 8.975 80.279 4.979 5.625-1.091 10.638-2.236 11.14-2.546 2.07-1.28 4.35-15.439 4.595-28.542.268-14.347-1.533-30.868-5.487-50.336-1.211-5.96-1.953-11.085-1.65-11.389.722-.721 6.351.501 27.781 6.032 22.028 5.685 31.044 7.023 44.077 6.54 11.266-.417 15.221-1.899 19.146-7.176 1.864-2.506 2.101-4.165 2.068-14.5-.042-12.92-1.248-17.868-9.949-40.799-2.454-6.467-4.297-11.923-4.096-12.124.201-.201 8.177 2.538 17.724 6.087 22.547 8.381 31.124 10.184 43.058 9.052l6.7-.636-.574-3.125c-1.027-5.584-5.498-15.806-11.093-25.363-3.012-5.145-5.285-9.545-5.051-9.778.643-.643 16.818 9.555 16.818 10.603 0 .502-.675.912-1.5.912-2.249 0-1.833 2.397 1.596 9.19 3.755 7.439 10.967 15.263 17.799 19.31 2.786 1.65 5.074 3.266 5.085 3.591.011.325-4.131 4.375-9.204 9s-10.136 9.326-11.25 10.447c-1.114 1.12-6.976 6.498-13.026 11.949-6.05 5.452-11.918 10.835-13.04 11.963-2.152 2.162-23.77 22.237-33.954 31.53-5.859 5.346-14.906 13.789-29.03 27.09-3.837 3.613-12.826 11.911-19.976 18.439-14.675 13.398-20.599 18.903-34.966 32.491-11.451 10.831-35.106 32.848-44.025 40.977-3.305 3.012-10.284 9.544-15.509 14.514-5.225 4.971-16.025 15.103-24 22.517-14.699 13.664-24.585 22.956-39.984 37.58-4.684 4.448-16.616 15.683-26.516 24.966-9.9 9.284-18.229 17.119-18.51 17.413-.28.293-3.88 3.683-8 7.533-12.037 11.25-44.835 42.361-52.99 50.266l-7.5 7.269 6.684 6.427c7.312 7.03 19.034 16.014 25.316 19.402 2.2 1.186 4.675 2.598 5.5 3.137 2.503 1.635 24.365 11.328 26.218 11.624.43.069.895.216 1.032.327.137.11.925.353 1.75.538.825.185 3.413 1.031 5.75 1.879 2.337.848 4.25 1.401 4.25 1.228 0-.173 2.645.41 5.877 1.294 5.416 1.483 7.953 3.768 3.873 3.489-5.407-.37 3.18 7.561 12.141 11.214 5.582 2.276 7.923 2.666 15.063 2.513 4.65-.1 8.66-.387 8.911-.638.783-.783-2.764-4.107-6.139-5.754-1.774-.866-5.813-2.558-8.976-3.761-9.223-3.507-6.74-4.629 5.5-2.487 2.063.361 3.75.283 3.75-.173 0-.854-4.891-6.823-15.665-19.114-6.2-7.074-10.525-13.666-11.833-18.038-.696-2.326-.632-2.348 4.646-1.666 2.944.38 8.008 1.359 11.254 2.175 5.786 1.453 8.573 1.983 15.598 2.961 1.925.268 4.85.717 6.5.998 7.666 1.304 28.251 1.301 33.796-.004 3.188-.751 6.068-1.637 6.4-1.969.648-.647.499-9.881-.251-15.637-.973-7.468-1.344-9.043-4.844-20.589-6.209-20.488-6.863-22.824-7.32-26.161-.525-3.838-1.058-3.761 12.293-1.769 5.459.814 11.951 1.727 14.426 2.028 2.475.301 5.375.818 6.445 1.148 2.496.772 42.554 1.153 42.558.406.002-.31 1.856-.587 4.119-.616 2.837-.036 4.546-.64 5.497-1.94 2.243-3.068 5.561-12.751 5.571-16.26.006-1.789.352-3.464.77-3.722.847-.524.555-34.468-.357-41.525a997.27 997.27 0 01-1.169-9.5c-1.306-11.115-1.583-12.983-1.991-13.39-.234-.234.006-.946.534-1.582.723-.872 2.877-.799 8.741.294 4.28.798 8.457 1.688 9.282 1.978.825.29 1.725.593 2 .673.527.153 8.79 1.771 10.5 2.056.55.091 1.225.271 1.5.4.275.128 1.625.347 3 .486 1.375.138 7.137 1.056 12.804 2.038 12.22 2.118 19.38 1.687 31.449-1.891 3.165-.938 6.146-2.461 6.626-3.384 1.256-2.418 4.079-14.209 4.624-19.317.256-2.398.791-7.286 1.19-10.861 1.312-11.764.783-33.199-1.314-53.247l-.601-5.747 3.361.639c4.295.818 12.508 3.878 26.361 9.824 6.05 2.597 11.563 4.753 12.25 4.793.688.039 1.25.334 1.25.655s1.013.688 2.25.817c20.19 2.097 24.055 1.344 25.947-5.055.68-2.299 1.382-5.304 1.559-6.679.781-6.037.877-38.314.139-46.5-1.946-21.593-2.06-24.5-.965-24.5.6 0 4.348 3.101 8.33 6.892 3.982 3.791 9.49 8.748 12.24 11.017 5.916 4.881 18.996 11.668 22.399 11.623 2.207-.029 2.419-.472 2.643-5.532.315-7.067.302-7 1.337-7 .853 0 2.762 3.99 3.337 6.976.156.812.847 2.082 1.534 2.822.688.739 1.25 1.909 1.25 2.599 0 .69 1.111 2.298 2.469 3.574l2.47 2.32 1.03-2.711c2.698-7.095-.096-21.665-5.911-30.83-3.443-5.427-4.689-5.852-6.12-2.087-1.336 3.515-2.353 2.141-3.824-5.163-.664-3.3-1.921-9.053-2.793-12.785-.871-3.731-1.341-7.029-1.042-7.327.298-.299 2.359 2.567 4.579 6.368 4.041 6.92 8.312 11.864 6.825 7.901-.38-1.013-.962-3.038-1.292-4.5-1-4.429-5.32-15.096-10.392-25.657-7.479-15.575-30.719-53.072-33.571-54.166-.826-.317-2.309.153-3.294 1.045-2.34 2.118-4.132 2.062-4.143-.129-.016-2.926-5.607-11.721-11.493-18.078-4.37-4.721-5.191-6.085-3.82-6.349 2.385-.459-9.464-12.987-20.178-21.334-15.567-12.128-39.006-27.152-47.642-30.536-7.418-2.906-9.513-3.285-18.625-3.364-8.482-.074-10.244-.35-10.135-1.589.073-.825.08-2.015.017-2.644-.211-2.095-13.643-10.419-20.012-12.401-7.809-2.43-17.103-2.663-17.103-.429m-38.687 19.576c-8.194 2.371-9.486 11.064-2.682 18.032 9.22 9.443 30.891 11.234 35.339 2.921 1.474-2.754 1.271-7.689-.455-11.026-4.086-7.902-21.087-13.142-32.202-9.927m-107.722 2.424c-2.7.742-5.819 2.257-6.93 3.369-1.706 1.706-1.843 2.41-.879 4.527 2.757 6.049 26.887 13.634 57.218 17.984 7.857 1.127 31.166 2.761 31.705 2.223 1.333-1.334-21.745-18.555-30.312-22.619-11.972-5.68-18.344-7.021-32.89-6.921-7.519.052-15.073.658-17.912 1.437M333 69.791c-3.025 1.444-7.481 2.869-9.903 3.167-4.085.503-4.499.83-5.731 4.542-.731 2.2-1.791 4.787-2.356 5.75-.565.963-.767 1.75-.449 1.75s4.956-3.263 10.307-7.25c5.35-3.987 10.832-8.014 12.18-8.948 3.357-2.323 2.409-2.092-4.048.989m212.094 5.339c-1.236 1.326-2.094 3.581-2.094 5.501 0 7.757 16.375 23.168 36.412 34.269 10.268 5.687 47.499 22.522 48.219 21.803.703-.704-3.535-7.608-8.719-14.203-5.921-7.532-29.573-30.746-36.974-36.29-6.845-5.127-18.911-10.766-24.938-11.654-2.475-.365-5.695-.89-7.156-1.168-1.906-.363-3.248.129-4.75 1.742M301 95c-1.643 1.062-10.253 3.949-19.25 6.454-5.726 1.595-5.75 1.618-5.75 5.448 0 4.769-2.255 11.34-5.695 16.598l-2.617 4 4.906-4.5c9.985-9.158 25.011-22.825 28.406-25.836 3.294-2.923 3.294-4.293 0-2.164m8.871 17.006c-11.295 5.968-11.901 16.827-1.511 27.051 6.144 6.045 15.838 11.42 27.64 15.324 11.03 3.649 32.617 8.336 33.647 7.305.87-.87-2.245-8.231-6.427-15.186-9.137-15.197-24.687-31.035-33.832-34.456-6.872-2.571-14.694-2.586-19.517-.038m98.978 1.371c-9.844 2.675-13.842 7.62-13.842 17.123 0 6.945 1.907 10.807 7.406 15.001 5.14 3.921 10.089 5.405 18.189 5.455 8.3.051 12.754-2.219 15.646-7.976 2.427-4.829 2.312-13.963-.239-18.962-4.538-8.895-16.436-13.556-27.16-10.641m81.651 1.943c-20.266 9.789-14.554 33.355 12.785 52.738 14.686 10.413 40.758 19.591 63.6 22.387l5.385.66-.703-6.217c-1.612-14.245-8.914-30.278-20.403-44.795-7.986-10.092-17.545-17.947-27.727-22.786-7.273-3.456-8.773-3.798-17.937-4.086-8.902-.281-10.549-.05-15 2.099m-229.38 16.308c-1.358.952-5.431 1.887-9.8 2.25l-7.476.622-2.797 7.198c-4.711 12.127-11.983 23.071-21.406 32.214-3.855 3.74-4.782 4.216-6.094 3.127-1.327-1.101-1.776-.734-3.161 2.589-.888 2.129-2.711 6.122-4.051 8.872l-2.436 5 3.196-3.5c15.55-17.03 39.473-42.226 46.768-49.259 10.572-10.191 12.811-13.002 7.257-9.113m332.28 13.754c-3.645 1.641-4.4 3.224-4.4 9.232 0 8.12 6.193 18.65 13.808 23.479 6.352 4.028 14.068 4.151 17.119.272 4.335-5.51 1.941-17.89-4.984-25.777-5.907-6.728-15.488-9.933-21.543-7.206m-346.975 21.5c-4.611 2.813-7.805 10.923-6.961 17.679 1.317 10.535 11.601 27.079 26.742 43.019 7.036 7.407 14.529 13.42 16.724 13.42 2.701 0 .526-26.947-3.441-42.621-2.995-11.833-6.566-19.246-11.933-24.768-7.835-8.061-15.134-10.386-21.131-6.729m405.709.205c-4.948 5.31-3.138 17.105 5.16 33.638 3.196 6.367 14.795 23.527 19.902 29.444a93.363 93.363 0 014.304 5.46c8.083 11.28 17.568 21.277 20.25 21.341 1.146.028 1.761-2.072 1.298-4.431-.104-.528-.28-2.328-.392-4-.112-1.671-.532-3.561-.933-4.199-.401-.638-.464-1.851-.14-2.696.325-.846-.091-3.924-.924-6.841-1.35-4.733-1.903-7.318-3.058-14.303-1.184-7.158-7.011-22.053-12.454-31.833-9.865-17.726-26.483-28.589-33.013-21.58M415.991 183.28c-7.904 2.864-11.174 4.836-16.824 10.147-6.913 6.499-8.642 10.614-8.647 20.573-.003 6.408.543 9.914 2.222 14.244 6.197 15.992 13.043 21.56 42.758 34.777 20.483 9.11 30.241 11.979 40.746 11.979h8.021l-.563-9.75c-.607-10.526-2.233-16.403-10.168-36.75-13.162-33.751-24.705-46.266-43.536-47.204-6.026-.301-8.78.09-14.009 1.984m105.923 26.676c-13.159 3.987-16.493 22.998-6.153 35.078 4.554 5.32 8.009 6.966 14.624 6.966 6.866 0 9.333-.931 13.35-5.04 4.823-4.933 6.105-11.955 3.762-20.61-3.612-13.342-13.9-19.935-25.583-16.394m80.08 5.914c-13.744 4.534-19.008 15.663-15.452 32.662 1.402 6.701 5.286 16.311 7.666 18.971.711.793 2.63 3.142 4.266 5.22 2.494 3.168 10.848 11.011 15.741 14.777.714.55 3.771 3.063 6.792 5.584 12.599 10.513 28.953 20.734 29.008 18.13.009-.392.381-.137.829.567 1.012 1.595 4.513.347 4.998-1.781.843-3.7 1.922-11.547 1.65-12-.165-.275-.568-2.905-.895-5.844-.328-2.939-.772-5.639-.989-6-.216-.361-.688-2.906-1.049-5.656-.36-2.75-1.566-8.6-2.68-13-8.311-32.822-13.112-42.148-24.944-48.454-5.201-2.772-7.418-3.337-14.296-3.642-4.476-.199-9.267.011-10.645.466m-402 10.642c-8.675 17.921-.623 63.101 14.257 79.988l3.524 4-.373-9c-.205-4.95-.577-17.775-.826-28.5-.59-25.41-3.553-41.887-8.71-48.443-3.021-3.841-5.346-3.264-7.872 1.955m46.007 37.611C239.512 266.711 236 272.58 236 280.836c0 9.187 2.589 15.816 8.498 21.762 18.158 18.268 37.071-7.573 22.434-30.652-4.799-7.565-13.46-10.802-20.931-7.823m431.535 5.027c-5.732 4.509-7.148 14.314-3.547 24.559 3.922 11.158 9.603 16.743 16.757 16.474 3.682-.138 4.102.919 1.403 3.528-1.019.984-6.481 6.964-12.139 13.289-5.657 6.325-10.674 11.387-11.148 11.25-.474-.138-.75.159-.612.66.91 3.31-92.629 96.778-125.75 125.655-5.5 4.795-12.7 11.291-16 14.435-3.3 3.145-12.075 11.051-19.5 17.57-7.425 6.519-13.95 12.355-14.5 12.968-1.128 1.258-16.593 14.548-32.882 28.258-5.985 5.037-11.385 8.872-12 8.521-.615-.351-.796-.281-.403.154.954 1.057-15.327 13.563-16.668 12.802-.576-.326-.712-.224-.303.227.409.452-1.391 2.324-4 4.162-20.766 14.625-21.611 15.189-32.717 21.838l-6.681 4 5.327 1.285c4.925 1.188 9.457 1.639 20.636 2.055 2.37.088 4.1.497 3.845.91-.254.413 1.631.641 4.191.507 3.49-.182 4.155-.012 2.655.68-1.348.622-1.511.94-.5.977 3.885.143 3.943-1.636.11-3.364-2.18-.983-5.167-3.044-6.638-4.579l-2.675-2.792 2.214-1.185c1.217-.651 3.274-.981 4.571-.734 1.297.248 2.12.066 1.829-.404-.291-.471 4.785-.849 11.28-.841 7.161.01 11.264.361 10.424.893-.846.536.477.667 3.4.337 3.922-.442 4.633-.287 3.943.858-.713 1.183-.586 1.189.829.042 1.382-1.121 2.582-1.136 6.942-.087 7.071 1.7 9.898 1.957 9.207.838a1.095 1.095 0 00-1.503-.354c-.511.315-1.943-.157-3.181-1.051-1.374-.992-1.667-1.553-.752-1.44 2.803.347 4.12-.048 3.5-1.051-.34-.55-.115-1 .5-1s.797-.52.405-1.155c-.429-.692-.276-.883.381-.477 1.112.687 5.214-2.982 5.214-4.664 0-.505.788-.618 1.75-.252 4.782 1.821-1.079-1.484-6.991-3.942-20.223-8.407-20.883-21.701-1.259-25.362 5.018-.936 15.161-1.367 24-1.019 1.1.043 4.098.671 6.663 1.395 2.565.724 4.927 1.052 5.25.73.323-.323.587-.059.587.588 0 .894.455.891 1.907-.016 1.049-.655 1.755-1.983 1.569-2.951-.248-1.29.11-1.591 1.343-1.13 1.518.569 1.536.446.181-1.269-1.228-1.554-.912-1.486 1.743.376 2.366 1.659 3.08 1.852 2.643.711-.405-1.054.005-1.602 1.257-1.681 1.062-.068.572-.445-1.143-.882-2.972-.756-2.975-.764-.344-.882 2.087-.093 2.551-.523 2.163-2.005-.271-1.038.065-2.233.748-2.655.853-.527.989-.357.433.542-.524.848-.418 1.067.302.622.611-.377.857-1.347.547-2.154-.505-1.317 0-1.612 2.401-1.402.413.036.635.636.494 1.333-.14.697.398 1.268 1.196 1.268 1.08 0 1.209-.455.503-1.773-1.015-1.898.296-3.482 2.007-2.425.522.323 1.447-.438 2.055-1.691 1.078-2.222 1.066-2.229-.508-.278-1.566 1.942-1.602 1.916-1.237-.88.448-3.43 3.087-5.628 6.079-5.062 1.79.338 1.615-.021-1.018-2.092-8.977-7.06-10.484-19.422-3.449-28.305 3.592-4.535 10.368-8.219 15.895-8.641 3.561-.272 3.594-.247.733.545-2.304.639-1.841.728 2 .383 4.145-.371 6.112.096 11.5 2.732 6.708 3.281 10.697 4.12 11.721 2.463.323-.524.116-.66-.462-.303-.577.357-1.288.027-1.579-.733-.379-.987.089-1.246 1.645-.907 1.387.302 1.741.161.978-.39-1.325-.955-.777-2.057 2.139-4.31 1.155-.892 1.638-.994 1.191-.25-.667 1.11.38 1.516 3.005 1.165.351-.047 1.069.515 1.595 1.25.699.976.793.835.35-.526-.423-1.301-.201-1.706.739-1.346.74.284 1.345-.096 1.345-.844 0-.749-.344-1.148-.765-.889-.42.26-1.089-.053-1.486-.695-.507-.821-1.121-.621-2.069.675-1.205 1.648-1.347 1.664-1.347.151 0-.93.378-1.691.839-1.691.462 0 1.393-1.214 2.069-2.698.893-1.96 1.449-2.342 2.034-1.397.621 1.007 1.286 1.043 2.931.163 1.17-.626 2.127-1.599 2.127-2.162s.445-.749.989-.413c.56.347.738-.042.409-.898-.342-.892.683-2.856 2.507-4.802 1.697-1.811 3.088-3.882 3.09-4.602.003-.72.455-1.031 1.005-.691.55.34 1 .181 1-.353 0-1.075 4.006-.879 5.894.288.88.544.909 1.098.106 2.065-.803.967-.774 1.521.106 2.065.735.455.942.322.532-.341-.369-.597-.191-1.382.394-1.744.741-.458.708-1.088-.106-2.069-.644-.776-.902-1.411-.573-1.411.329 0 .176-1.109-.34-2.465-.636-1.674-.578-2.686.18-3.154.638-.395.838-.24.467.36-.669 1.082 2.216 2.716 3.15 1.783.288-.288-.028-.524-.702-.524-.674 0-.946-.453-.604-1.007.343-.554-.078-1.276-.935-1.605-.857-.329-1.37-.901-1.141-1.271.229-.371-.208-3.586-.971-7.146-1.621-7.563-1.885-16.697-.389-13.471.714 1.541.798 1.272.368-1.169-.928-5.261 3.493-12.219 10.564-16.624 2.622-1.634 12.386-3.141 11.547-1.782-.268.432.59.58 1.905.329 3.088-.59 10.621 4.51 13.47 9.12 1.156 1.87 2.858 4.014 3.781 4.764.975.791.709.037-.634-1.799l-2.314-3.162 2.622-2.828c1.443-1.556 2.623-3.171 2.623-3.589 0-.418.528-.76 1.174-.76.646 0 .196 1.042-1 2.314-1.196 1.273-2.172 2.736-2.169 3.25.009 1.716 4.922-5.036 4.959-6.814.024-1.173.778-1.712 2.286-1.634 1.693.087 1.817.229.5.573-2.007.525-2.281 1.865-.595 2.906.715.443.883.275.44-.44-.647-1.049.599-1.619 2.729-1.249.454.079.541-.316.194-.877-.347-.562-.805-1.921-1.016-3.021-.382-1.98.243-2.32 5.998-3.255 1.301-.212 1.889-.96 1.683-2.14-.193-1.108.108-1.551.775-1.139.6.371 1.027.304.948-.15-.357-2.059.219-2.693 1.204-1.324.901 1.253.983 1.203.494-.306-.438-1.354.163-2.065 2.406-2.847 2.914-1.016 4.115-2.847 1.868-2.847-.717 0-.794-.452-.212-1.25.501-.687.823-6.875.715-13.75-.304-19.507 4.042-32.813 11.315-34.638 3.495-.878 8.779 2.052 11.426 6.335 1.14 1.846 2.592 3.907 3.226 4.58.634.672 1.197 1.786 1.252 2.473.306 3.826.487 4.314 1.389 3.757.552-.341.742.03.431.84-.306.798-.076 1.748.512 2.111.633.391 1.068-.229 1.068-1.521 0-1.712.289-1.942 1.342-1.068.738.612 1.662.794 2.053.403s.419.175.064 1.258c-.527 1.601-.446 1.689.431.47.893-1.241 1.082-1.255 1.095-.083.008.779.312 1.119.676.756.363-.363-.2-1.641-1.25-2.839-1.051-1.198-1.348-1.849-.661-1.447.792.463 1.25.121 1.25-.935 0-1.095.532-1.462 1.552-1.07.944.362 1.296.181.899-.461-.359-.581 1.193-2.636 3.448-4.567 2.256-1.93 4.101-4.176 4.101-4.991 0-.815.419-1.222.931-.906.512.317 1.256.049 1.654-.595.452-.731.291-.903-.43-.457-.775.478-1.155-.274-1.155-2.287 0-1.65-.403-3.249-.896-3.554-.515-.318-.536-2.148-.049-4.308.466-2.065.531-4.07.146-4.455-.386-.385-.411-6.338-.056-13.228.643-12.505 2.288-18.217 5.557-19.307 1.804-.601 6.401 7.069 6.612 11.029.102 1.926.476 3.326.831 3.11 1.108-.675 1.716 2.204.778 3.686-.491.775-.892 1.859-.892 2.409 0 .55.436.325.969-.5 1.104-1.708 1.281-.176 1.013 8.75-.121 4.017.186 5.25 1.308 5.25.806 0 1.733-.698 2.061-1.552.327-.854.179-1.295-.329-.981-.561.347-.557-.71.011-2.691.515-1.795.936-3.405.936-3.578 0-.174.337-.107.75.147.413.255.75-4.175.75-9.845 0-5.67-.394-10.066-.875-9.768-.482.298-.687-2.411-.457-6.027.23-3.612.041-6.334-.421-6.049-.461.285-.805-1.208-.764-3.319.083-4.325-.671-10.524-1.79-14.708-.732-2.737-.878-2.614-5.933 5.033C713.199 289.83 699.441 306 697.702 306c-.871.001-1.167-3.03-1.076-11 .069-6.05-.269-11-.75-11-.482 0-.876-.812-.876-1.804 0-2.512-5.393-10.764-8.187-12.528-4.276-2.699-6.356-2.815-9.277-.518m-352.79-.064c-5.703 1.344-12.807 5.279-17.132 9.491-7.537 7.339-9.812 16.912-7.108 29.923 3.923 18.882 14.934 29.743 47.494 46.842 6.875 3.611 15.548 7.711 19.273 9.111 6.947 2.613 16.075 3.41 17.251 1.508 1.551-2.51 1.553-15.007.003-23.961-5.809-33.562-16.921-59.671-28.906-67.917-7.833-5.389-20.508-7.441-30.875-4.997m-151.285 8.977c-.421.681-.977 8.707-1.236 17.837-.474 16.703 1.036 32.815 3.993 42.6 1.1 3.64 1.283 2.424 2.035-13.5.94-19.91.494-34.221-1.296-41.5-1.396-5.68-2.39-7.226-3.496-5.437M523.5 292.409c-8.74 1.768-14.456 4.688-19.115 9.767-7.98 8.7-11.258 23.945-7.908 36.78 2.932 11.238 7.461 17.905 16.02 23.586C517.707 366 532.712 373 534.914 373c.612 0 1.895.451 2.85 1.001 3.91 2.256 15.237 6.865 15.251 6.207.009-.389.346-.195.75.433.901 1.399 11.143 4.534 12.358 3.783.483-.298.877-.178.877.267s2.578.809 5.729.809c5.254 0 5.839-.227 7.047-2.734 2.78-5.768 1.1-21.655-3.728-35.266-.975-2.75-3.034-9.05-4.574-14-3.84-12.344-11.636-28.213-16.125-32.825-4.707-4.837-9.342-7.203-16.814-8.584-6.9-1.275-7.183-1.269-15.035.318m-98.489 6.491c-9.87 3.514-14.952 11.948-13.553 22.492.926 6.98 2.705 10.688 7.164 14.93 4.362 4.148 8.588 5.664 15.812 5.672 13.653.016 22.874-12.96 19.76-27.807-2.86-13.633-15.391-20.197-29.183-15.287M617 333.22c0 .429-.623.78-1.384.78-.761 0-2.95 1.734-4.865 3.854-8.586 9.504-6.763 27.399 3.372 33.095 4.864 2.734 12.009 3.073 16.419.779 4.497-2.338 9.458-8.776 9.458-12.273 0-.865.337-1.364.75-1.11.413.255.75-2.643.75-6.44 0-3.798-.289-6.905-.642-6.905-.352 0-.915-1.09-1.249-2.423-.979-3.899-5.442-8.455-8.919-9.106-5.066-.947-13.69-1.105-13.69-.251m105.079.363c.048 1.165.285 1.402.604.605.289-.722.253-1.585-.079-1.917-.332-.332-.568.258-.525 1.312m3.546 8.215c-.271.439-.093 1.445.397 2.237.671 1.086.848.889.721-.798-.183-2.427-.364-2.66-1.118-1.439m-1.072 5.117a1.116 1.116 0 00.362 1.532c.521.322 1.21.159 1.532-.362a1.116 1.116 0 00-.362-1.532 1.116 1.116 0 00-1.532.362M242.5 348.412c-6.53 2.902-10.31 9.826-11.178 20.472-2.052 25.184 23.77 56.513 59.255 71.892 11.028 4.78 11.406 4.83 11.524 1.541.349-9.686-1.435-17.493-8.703-38.104-11.842-33.578-22.026-48.581-37.22-54.83-6.467-2.66-9.408-2.869-13.678-.971m463.778.838c-1.501 1.939-2.397 4.941-1.267 4.243.544-.336.989-1.286.989-2.111 0-.825.375-1.268.833-.985.459.283.834-.14.834-.941 0-1.776-.156-1.8-1.389-.206m15.28 4c-1.297 4.269-1.399 5.991-.289 4.881.636-.636 1.216-2.276 1.289-3.644.142-2.655-.375-3.295-1-1.237m2.521 2.333c.048 1.165.285 1.402.604.605.289-.722.253-1.585-.079-1.917-.332-.332-.568.258-.525 1.312m-15.005 3.828c-.884 1.065-.888 1.586-.016 2.125.868.536.859.897-.035 1.45-.858.53-.748.906.393 1.343 1.784.685 2.249-1.8.535-2.859-.716-.443-.678-1.094.123-2.059.644-.776.946-1.411.671-1.411-.275 0-1.027.635-1.671 1.411m10.805 5.006c.467.595.76 2.095.652 3.333-.108 1.237.066 1.987.386 1.667 1.171-1.17.695-6.084-.589-6.084-.786 0-.962.427-.449 1.084M695 365.441c0 .793.408 1.693.907 2.001.498.309.671-.34.383-1.441-.611-2.335-1.29-2.63-1.29-.56m5.405 1.809l-1.905 2.25 2.25-1.905c2.114-1.79 2.705-2.595 1.905-2.595-.19 0-1.202 1.012-2.25 2.25m-526.388 6c.031 12.872 3.755 25.523 8.877 30.155L185 405.31v-9.55c0-6.693-.59-11.45-1.974-15.905-2.005-6.457-6.31-13.855-8.062-13.855-.532 0-.956 3.252-.947 7.25m519.732-2.462c.291.759.809 1.004 1.152.546a10.46 10.46 0 011.474-1.53c.468-.383-.05-.629-1.152-.546-1.26.095-1.807.663-1.474 1.53m5.628 1.963c-.068 1.512.082 2.187.333 1.499.795-2.176 2.084-1.351 1.934 1.238-.15 2.585-2.141 4.135-3.171 2.468-.325-.526-.039-.956.635-.956s.99-.236.702-.524c-.288-.287-1.276-.234-2.196.119-1.544.592-1.537.741.092 1.932 3.643 2.664 6.122-1.69 3.859-6.777-1.138-2.556-2.047-2.14-2.188 1.001m9.261-.251c.317.825 1.033 1.5 1.591 1.5.586 0 .489-.635-.229-1.5-.685-.825-1.401-1.5-1.591-1.5-.19 0-.087.675.229 1.5m4.362-.059c0 .793.408 1.693.907 2.001.498.309.671-.34.383-1.441-.611-2.335-1.29-2.63-1.29-.56m4.459-.374c-.363.586-.445 1.281-.183 1.543s.743-.218 1.069-1.067c.676-1.762.1-2.072-.886-.476m-12.952.922c-.35.566.051.734.941.393 1.732-.665 2.049-1.382.611-1.382-.518 0-1.216.445-1.552.989m1.474 2.023c-.783.483-1.074 1.228-.648 1.655.427.426 1.147.175 1.6-.559.684-1.107.917-1.102 1.367.029.342.86.571.924.621.172.113-1.706-1.283-2.322-2.94-1.297m14.393.455c-.309.807-.37 2.044-.134 2.75s.666.045.956-1.467c.566-2.953.099-3.682-.822-1.283m-58.122 3.033c.011 2.2.216 2.982.455 1.738.239-1.244.23-3.044-.02-4s-.446.062-.435 2.262m44.891.169c1.069.284 1.501 1.202 1.239 2.634-.228 1.237-.122 1.541.241.697.355-.825 1.09-2.062 1.634-2.75.745-.943.283-1.222-1.885-1.134-1.579.064-2.133.312-1.229.553m9.857.39c0 .582.45.781 1 .441s1-.816 1-1.059-.45-.441-1-.441-1 .477-1 1.059m-5.335 1.674c-.295.477.448 1.479 1.65 2.228 2.066 1.286 2.105 1.256.718-.55-.807-1.051-1.549-2.053-1.65-2.228-.1-.174-.424.074-.718.55m-288.935 2.219c-7.124 2.277-10.19 4.214-14.911 9.422-5.056 5.577-8.11 12.091-8.635 18.417-.89 10.731 6.885 27.571 16.406 35.533 2.883 2.412 18.402 10.676 20.047 10.676.672 0 15.028 5.467 26.363 10.041 11.487 4.634 30.374 6.985 33.224 4.135 2.714-2.714 1.069-15.592-3.285-25.72-7.111-16.542-15.725-34.349-18.872-39.012-1.687-2.5-3.067-4.865-3.067-5.258 0-1.887-12.284-14.009-16.134-15.919-9.458-4.696-21.003-5.554-31.136-2.315m271.883.231c.289.467.944.591 1.456.274 1.308-.808 1.161-1.124-.525-1.124-.801 0-1.22.383-.931.85m2.731 2.157c.856 2.379-.287 4.358-1.454 2.517-.507-.801-.866-.895-.875-.229-.008.62.66 1.687 1.485 2.372 1.232 1.023 1.5.945 1.5-.437 0-.968.467-1.393 1.1-1.001.709.438.66-.163-.136-1.691-1.595-3.062-2.468-3.887-1.62-1.531m8.656-.399c0 .518.445 1.216.989 1.552.566.35.734-.051.393-.941-.665-1.732-1.382-2.049-1.382-.611m-374.857 2.496c-8.394 2.726-12.51 8.724-12.441 18.131.146 20.163 21.135 32.365 36.414 21.171 6.028-4.417 9.197-15.171 6.938-23.546-1.371-5.082-6.906-11.566-12.162-14.248-5.095-2.599-13.344-3.263-18.749-1.508m381.67 3.246c.721.289 1.584.253 1.916-.079.332-.332-.258-.568-1.312-.525-1.165.048-1.402.285-.604.604m-16.306 2.306c-.35.566.051.734.941.393 1.732-.665 2.049-1.382.611-1.382-.518 0-1.216.445-1.552.989m17.126 1.761c.167.688-.207 1.25-.831 1.25s-.846.289-.493.643c.824.824 3.696-1.532 3.676-3.015-.009-.662-.373-.564-.879.235-.475.75-1.07.975-1.321.5-.251-.475-.32-.3-.152.387m-17.554 1.833c.048 1.165.285 1.402.604.605.289-.722.253-1.585-.079-1.917-.332-.332-.568.258-.525 1.312m-36.266.1c.721.289 1.584.253 1.916-.079.332-.332-.258-.568-1.312-.525-1.165.048-1.402.285-.604.604m33.382 4.039c-.168 2.597.002 4.415.377 4.04 1.047-1.048 1.726-8.762.771-8.761-.464 0-.98 2.125-1.148 4.721m-38.54-.893c-1.876 2.072-2.118 3.767-.666 4.664.571.353.731-.059.378-.978-.336-.876.188-2.471 1.167-3.552.977-1.08 1.551-1.963 1.276-1.963-.275 0-1.245.823-2.155 1.829m-457.098 4.394c-2.218 3.165-1.935 7.796 1.014 16.601 5.965 17.813 18.488 36.488 38.633 57.613 12.158 12.75 15.137 14.214 11.787 5.793-1.035-2.601-3.897-10.355-6.359-17.23-13.683-38.203-22.568-53.719-35.578-62.127-5.344-3.453-7.434-3.597-9.497-.65m463.145.444c.282.733.641 1.333.798 1.333.157 0 .516-.6.798-1.333.281-.734-.078-1.334-.798-1.334-.72 0-1.079.6-.798 1.334m37.862.04c-.542 1.425-.428 1.54.56.56.684-.679.991-1.486.683-1.793-.308-.308-.867.247-1.243 1.233m-32.926.793c-.316.825-.187 1.5.286 1.5.474 0 1.121-.675 1.438-1.5.316-.825.187-1.5-.286-1.5-.474 0-1.121.675-1.438 1.5m-1.971 3.167c-.932.932-.832 2.333.166 2.333.459 0 .834-.675.834-1.5 0-1.699-.073-1.76-1-.833m5.003 2.75c-.299.78.052 1.646.78 1.925.904.347 1.164-.103.82-1.417-.601-2.298-.879-2.386-1.6-.508m24.458-.071c-.724.873-1.085 2.164-.801 2.87.333.831.543.687.594-.407.043-.93.476-1.936.961-2.236 1.331-.823.766 5.179-.618 6.563-.937.937-1.416.669-2.17-1.216-.532-1.331-.989-1.745-1.015-.92-.098 3.064 1.491 4.301 3.882 3.021 1.742-.932 2.076-1.739 1.564-3.778-.598-2.38-.502-2.478 1.162-1.201.997.766 1.491 1.01 1.098.544-.393-.467-.256-1.802.305-2.967.905-1.88.867-1.93-.339-.446-1.213 1.493-1.463 1.507-2.332.129-.875-1.387-1.108-1.382-2.291.044m-35.878.372c-.687.247-1.25.916-1.25 1.488 0 .682.462.656 1.342-.075 1.604-1.331 2.735-.495 1.982 1.467-.296.771-.313 1.402-.038 1.402s.746-.642 1.048-1.427c.648-1.688-1.303-3.495-3.084-2.855m-121.006 1.945l-3.417.749c-3.883.853-8.836 5.398-10.947 10.047-5.835 12.844 3.732 28.047 17.574 27.925 10.978-.096 17.343-5.931 18.483-16.943.448-4.326.249-7.777-.59-10.234-1.413-4.141-8.302-11.168-11.058-11.279-.984-.04-3.479-.153-5.545-.25-2.066-.098-4.091-.105-4.5-.015m113.034 1.587c-1.499 1.938-2.442 3.75-1.952 3.75.244 0 1.181-1.125 2.082-2.5 1.686-2.573 1.592-3.476-.13-1.25m15.535-.567c.721.289 1.584.253 1.916-.079.332-.332-.258-.568-1.312-.525-1.165.048-1.402.285-.604.604M670 416c0 .55.477 1 1.059 1s.781-.45.441-1-.816-1-1.059-1-.441.45-.441 1m-13.985 1.25c-.008.962.322 1.784.735 1.827.413.042 1.54.227 2.505.412.965.184 1.53-.028 1.256-.472-.275-.444.237-1.09 1.138-1.436.9-.345 1.378-.888 1.061-1.205-.317-.317-1.169-.201-1.893.259-1.819 1.153-3.184 1.119-4.052-.102-.427-.601-.741-.302-.75.717m8.985-.857c0 .216.675.652 1.5.969.825.316 1.5.139 1.5-.393 0-.533-.675-.969-1.5-.969s-1.5.177-1.5.393m-2 1.985c0 .207.788.995 1.75 1.75 1.586 1.243 1.621 1.208.378-.378-1.307-1.666-2.128-2.195-2.128-1.372m4.756 1.286c.691.279 1.021.887.734 1.352-.287.465-.159 1.071.286 1.346.445.275.874-.369.954-1.431.093-1.229-.468-1.902-1.542-1.852-1.051.049-1.214.27-.432.585M638.5 421c-1.63.701-1.688.872-.309.93.93.038 1.969-.38 2.309-.93.711-1.15.676-1.15-2 0m56.6 1.295c-1.265 2.107-1.243 2.128.479.479.991-.95 1.587-1.942 1.324-2.205-.263-.263-1.074.514-1.803 1.726m-33.287-.612c.721.289 1.584.253 1.916-.079.332-.332-.258-.568-1.312-.525-1.165.048-1.402.285-.604.604m-16.063.979c.688.278 1.813.278 2.5 0 .688-.277.125-.504-1.25-.504s-1.937.227-1.25.504m25.499.991c.097 1.293.668 1.932 1.456 1.63.712-.273 1.295.076 1.295.777 0 .7.235 1.039.521.752.287-.287.091-1.599-.436-2.917-.527-1.317-.994-1.72-1.037-.895-.069 1.325-.189 1.326-1.019.013-.749-1.184-.908-1.054-.78.64m-21.614.856c-.337.877-.258 1.376.174 1.109.433-.267 1.44-.073 2.239.433 1.194.755 1.131.921-.357.934-1.033.008-1.524.476-1.145 1.09.436.704 1.405.423 2.809-.816 2.361-2.081 5.288-2.359 4.895-.464-.38 1.83 1.446 1.44 2.177-.465.352-.919.126-1.988-.504-2.377-1.364-.844-4.716-.097-5.538 1.233-.328.531-1.36.241-2.361-.664-1.624-1.47-1.83-1.471-2.389-.013m-3.822 1.174c.721.289 1.584.253 1.916-.079.332-.332-.258-.568-1.312-.525-1.165.048-1.402.285-.604.604M669 427.5c0 .825.436 1.5.969 1.5.532 0 .709-.675.393-1.5-.317-.825-.753-1.5-.969-1.5-.216 0-.393.675-.393 1.5m-28.128 1.25c-1.192 1.521-1.175 1.604.128.634.825-.613 2.175-1.365 3-1.671 1.255-.464 1.234-.568-.128-.634-.895-.043-2.245.709-3 1.671m4.128-.167c-1.375.763-1.97 1.394-1.323 1.402.647.008 1.382.803 1.634 1.765.327 1.253.49 1.078.573-.617.092-1.875.543-2.255 2.173-1.828 1.688.441 1.846.283.878-.884-.649-.781-1.237-1.377-1.307-1.323-.071.054-1.253.722-2.628 1.485m-6.476 1.917c.343 1.65 1.043 3.151 1.556 3.335.513.185.68.744.372 1.242-.308.499-.052 1.698.569 2.665 1.048 1.631 1.087 1.623.537-.119-.326-1.032-.022-2.581.675-3.442 1.023-1.264 1.023-1.418-.002-.802-.849.51-1.774-.336-2.799-2.558l-1.531-3.321.623 3m13.089.683c.289.467.944.591 1.456.274 1.308-.808 1.161-1.124-.525-1.124-.801 0-1.22.383-.931.85m14.137-.185c.688.771 1.25 1.789 1.25 2.261 0 .472-.562.542-1.25.156-.687-.387.756 1.386 3.208 3.941 2.452 2.554 4.816 4.644 5.253 4.644.437 0-.981-1.604-3.152-3.565-2.17-1.961-3.726-4.139-3.457-4.84.269-.701-.319-1.887-1.306-2.637-1.534-1.163-1.614-1.157-.546.04m5.75-.164c-.923.922-.511 2.291.5 1.666.55-.34 1.014-.029 1.03.691.019.798.433.618 1.062-.462.567-.974 1.566-1.464 2.219-1.09.654.375.842.3.419-.166-.872-.958-4.471-1.399-5.23-.639m-23.123 2.485c.098.65.549 1.774 1.001 2.498.537.86.354 1.252-.528 1.131-3.412-.468-4.85.158-4.85 2.111 0 1.302-.425 1.797-1.155 1.346-.715-.443-.883-.275-.44.44 1.232 1.994 3.457 1.342 2.885-.845-.481-1.838.496-2.523 3.001-2.105.434.073 1.672-.34 2.75-.917 1.278-.684 2.582-.715 3.752-.089 1.421.761 1.823.565 1.936-.945.079-1.048-.289-2.172-.817-2.499-.529-.326-.838-.03-.687.66.163.744-.742 1.254-2.225 1.254-1.375 0-2.402-.488-2.282-1.085.12-.596-.398-1.321-1.151-1.61-.753-.289-1.289.006-1.19.655M693 434.5c0 .825.177 1.5.393 1.5.216 0 .652-.675.969-1.5.316-.825.139-1.5-.393-1.5-.533 0-.969.675-.969 1.5m-21.269 1.58c.354 1.352.807 1.806 1.057 1.057.24-.722-.038-1.787-.62-2.369-.742-.742-.872-.351-.437 1.312m5.269-.702c0 .207.788.995 1.75 1.75 1.586 1.243 1.621 1.208.378-.378-1.307-1.666-2.128-2.195-2.128-1.372m-80.921 2.205c.048 1.165.285 1.402.604.605.289-.722.253-1.585-.079-1.917-.332-.332-.568.258-.525 1.312m78.921-.809c0 .61.457 1.391 1.016 1.736.559.346.715 1.117.346 1.714-.41.663-.203.796.532.341.931-.575.917-1.119-.062-2.404a84.02 84.02 0 01-1.549-2.078c-.156-.229-.283.082-.283.691m12.658 1.675c-.371.967-.076 1.265.887.895.794-.304 1.195-.956.89-1.449-.766-1.24-1.132-1.126-1.777.554m-6.767 1.757c.705.939.951 2.289.548 3-.59 1.042-.469 1.049.621.037 1.131-1.05 1.041-1.544-.548-3-1.713-1.569-1.775-1.573-.621-.037m-28.891.187c0 .216.675.652 1.5.969.825.316 1.5.139 1.5-.393 0-.533-.675-.969-1.5-.969s-1.5.177-1.5.393m35.459 3.674c-1.026 1.66-.105 1.89 1.33.332.71-.769.849-1.399.309-1.399-.539 0-1.277.48-1.639 1.067m-10.38 1.516c.048 1.165.285 1.402.604.605.289-.722.253-1.585-.079-1.917-.332-.332-.568.258-.525 1.312m-30.746 1.004c0 1.467 2.92 1.154 3.427-.367.203-.608-.485-1.041-1.529-.962-1.044.078-1.898.677-1.898 1.329m33.046.551c.126.653.995 1.3 1.93 1.437.935.137 1.442-.168 1.127-.679-.316-.511-.955-.693-1.42-.406-.465.287-1.075.058-1.356-.509-.28-.567-.407-.497-.281.157m-29.863 1.837c-.789 1.275.849 2.036 2.366 1.098 1.004-.621.946-.925-.266-1.39-.854-.328-1.799-.196-2.1.292M645 453.393c0 .216.675.652 1.5.969.825.316 1.5.139 1.5-.393 0-.533-.675-.969-1.5-.969s-1.5.177-1.5.393m-385.429 2.178c-2.34 2.341-2.068 11.77.492 17.058 4.506 9.31 16.098 17.371 24.978 17.371 5.715 0 7.71-1.902 8.569-8.169 1.206-8.798-5.972-19.357-16.853-24.795-6.939-3.467-14.536-4.114-17.186-1.465m391.689 4.977c-.682.74-.842 1.592-.355 1.893.487.301 1.168-.189 1.514-1.09.827-2.155.375-2.469-1.159-.803m-313.016 1.999c-2.891.778-6.289 2.092-7.551 2.918-12.17 7.974-9.174 29.362 6.245 44.576 6.032 5.953 23.898 14.706 35.562 17.424.55.128 1.675.462 2.5.741 4.631 1.569 17.189 4.141 21.5 4.403 24.225 1.474 23.609 1.824 17.61-10.006-3.349-6.605-16.178-25.219-19.024-27.603-.329-.275-1.917-2.3-3.529-4.5-4.816-6.571-17.703-19.401-23.057-22.955-9.305-6.178-19.575-7.874-30.256-4.998M603 461.378c0 .207.788.995 1.75 1.75 1.586 1.243 1.621 1.208.378-.378-1.307-1.666-2.128-2.195-2.128-1.372m-14.82 4.13c-2.637 3.033-2.717 3.578-.43 2.946.962-.266.585.085-.838.781-2.487 1.215-2.519 1.338-.816 3.12 1.718 1.799 1.756 1.784 1.251-.5-.414-1.873-.301-2.048.551-.855.8 1.121 1.075 1.166 1.087.179.008-.727.69-1.997 1.515-2.822 1.826-1.826 1.939-3.352.25-3.372-.833-.011-.75-.339.25-.985.825-.533 1.019-.976.43-.985-.588-.008-2.05 1.113-3.25 2.493m59.978-.508c0 1.375.227 1.938.504 1.25.278-.687.278-1.812 0-2.5-.277-.687-.504-.125-.504 1.25M589 466.559c0 .857.457 1.276 1.016.931.559-.346.758-1.047.441-1.559-.857-1.387-1.457-1.129-1.457.628m14.015-.809c.009.413.439 1.419.956 2.237.739 1.169.904 1.009.772-.75-.149-1.982-1.766-3.374-1.728-1.487m4.549.543c.376.986.935 1.541 1.243 1.233.308-.307.001-1.114-.683-1.793-.988-.98-1.102-.865-.56.56m45.841.552c.392.635.332 1.155-.133 1.155-.466 0-.918.951-1.006 2.113-.179 2.38-.009 2.295 1.601-.802.855-1.645.85-2.368-.019-2.905-.718-.444-.886-.277-.443.439m-56.738.822c-1.058 1.057-.781 2.075.72 2.651.973.374 1.236-.042.883-1.393-.559-2.139-.651-2.211-1.603-1.258m-16.659 3.307c-1.168.738-1.224 1.17-.258 1.993.678.577 1.016.75.75.383-.265-.366.019-1.27.631-2.008 1.302-1.569.956-1.683-1.123-.368m22.172 1.31c-.739.889-.747 1.733-.028 2.75.876 1.238.957 1.213.52-.162-.283-.896-.011-2.133.606-2.75s.862-1.122.544-1.122c-.317 0-1.056.578-1.642 1.284m12.82.094c0 .207.788.995 1.75 1.75 1.586 1.243 1.621 1.208.378-.378-1.307-1.666-2.128-2.195-2.128-1.372m-20.73 3.691c-.173 2.297.298 2.499 1.079.463.31-.807.227-1.676-.185-1.931-.412-.254-.814.406-.894 1.468m-18.661.755c-.353.571-.154 1.339.441 1.707 1.486.918 2.012.188 1.021-1.417-.532-.859-1.047-.962-1.462-.29M604 477c-1.282.828-1.246.972.25.985.962.008 1.75-.435 1.75-.985 0-1.22-.113-1.22-2 0m-18.543.931c.317.512.088 1.232-.509 1.601-.596.369-.843 1.3-.548 2.069.296.77-.011 1.406-.681 1.414-.794.01-.713.336.233.934.799.506 1.811.697 2.25.426.439-.271.798.632.798 2.007s.402 2.748.893 3.052c.516.319.556-.944.094-2.993-.572-2.537-.471-3.433.357-3.15.636.217 1.048 1.478.915 2.802-.24 2.4-.238 2.4.712.174.611-1.434 1.501-2.023 2.485-1.646.843.324 1.244 1.104.892 1.734-.44.786-.238.772.645-.045 1.036-.958.772-1.801-1.36-4.334-1.456-1.73-2.332-3.67-1.948-4.311.385-.641-.136-.49-1.156.335-1.414 1.144-1.954 1.203-2.275.25-.231-.687-.86-1.25-1.396-1.25-.537 0-.717.419-.401.931m14.885.201c1.453.844 1.708 1.789 1.205 4.469-.385 2.05-.235 3.399.376 3.399.558 0 .753-.68.434-1.511-.43-1.12-.098-1.355 1.282-.906 1.54.501 1.602.419.361-.473-1.333-.959-1.333-1.083 0-1.11 1.333-.027 1.333-.138 0-1s-1.333-.972 0-.991c.825-.012.211-.694-1.364-1.515-3.26-1.7-5.093-1.99-2.294-.362M622.5 479c.995 1.1 2.035 2 2.31 2 .275 0-.315-.9-1.31-2-.995-1.1-2.035-2-2.31-2-.275 0 .315.9 1.31 2m-36.675 2.326c-.373 1.825-.233 2.482.393 1.856.533-.533.793-1.805.576-2.826-.291-1.375-.543-1.123-.969.97m2.662-1.305c-.834 1.35.805 3.258 3.089 3.593 1.37.201 1.338-.074-.229-1.94-1.004-1.196-1.898-2.316-1.986-2.491-.088-.174-.482.203-.874.838M619 480c0 .55.45 1 1 1s1-.45 1-1-.45-1-1-1-1 .45-1 1m-45.436 1.707c-.542 1.425-.428 1.54.56.56.684-.679.991-1.486.683-1.793-.308-.308-.867.247-1.243 1.233M611 482c0 .55.477 1 1.059 1s.781-.45.441-1-.816-1-1.059-1-.441.45-.441 1m3.366 1.245c.313 2.061 1.673 3.76 2.943 3.676.859-.057.842-.22-.059-.583-.687-.278-1.25-1.116-1.25-1.862 0-.747-.41-1.612-.912-1.922-.502-.31-.827.001-.722.691m8.223-.389c-.291.47.583.643 1.941.383 1.359-.26 2.47-.645 2.47-.856 0-.773-3.899-.356-4.411.473m-54.19 1.394c-.396.688-.351.916.099.509.45-.408 1.534-.183 2.41.5 1.409 1.098 1.434 1.039.22-.509-1.636-2.086-1.8-2.116-2.729-.5m59.601-.872c0 .207.788.995 1.75 1.75 1.586 1.243 1.621 1.208.378-.378-1.307-1.666-2.128-2.195-2.128-1.372m-51.663 3.775c.289.909-.155 2.484-.987 3.5-1.459 1.781-1.491 1.777-.879-.123.349-1.083.315-1.649-.076-1.258s-1.427.174-2.303-.482c-1.333-1-1.389-.966-.342.208 1.869 2.096 1.507 3.449-.5 1.874-1.584-1.242-1.62-1.207-.387.367.75.956 1.715 1.522 2.146 1.256.43-.266 1.05.217 1.379 1.074.679 1.769 2.943.873 2.3-.911-.23-.637-.06-1.857.377-2.712.438-.855.334-2.205-.229-3-.85-1.199-.935-1.164-.499.207m56.301.347c.317.825 1.033 1.5 1.591 1.5.586 0 .489-.635-.229-1.5-.685-.825-1.401-1.5-1.591-1.5-.19 0-.087.675.229 1.5m-40.884 2.441c-.789 1.126-1.736 1.743-2.107 1.373-.37-.37.041.758.913 2.506.873 1.749 2.03 3.18 2.572 3.18.542 0 .727.419.411.931-.317.512-.208 1.158.241 1.435.449.278.816-.542.816-1.822 0-1.365-.483-2.142-1.169-1.879-.642.246-1.401-.441-1.685-1.529-.388-1.481.099-2.131 1.939-2.593 1.352-.339 2.284-1.135 2.074-1.767-.674-2.021-2.528-1.944-4.005.165M619 489c0 .55.477 1 1.059 1s.781-.45.441-1-.816-1-1.059-1-.441.45-.441 1m3.258 1.229c-.087 1.15-.678 2.413-1.315 2.806-.775.479-.815.926-.119 1.356.571.353 1.385.08 1.81-.607.983-1.592 1.23-4.75.41-5.257-.346-.214-.7.552-.786 1.702M625 489c0 .55.477 1 1.059 1s.781-.45.441-1-.816-1-1.059-1-.441.45-.441 1m-32 1c-.901.582-1.025.975-.309.985.655.008 1.469-.435 1.809-.985.767-1.242.421-1.242-1.5 0m4.158 1c0 1.375.227 1.938.504 1.25.278-.687.278-1.812 0-2.5-.277-.687-.504-.125-.504 1.25m9.842-1.031c0 .532.675.709 1.5.393.825-.317 1.5-.753 1.5-.969 0-.216-.675-.393-1.5-.393s-1.5.436-1.5.969m7.75-.307c.688.278 1.813.278 2.5 0 .688-.277.125-.504-1.25-.504s-1.937.227-1.25.504m-167.502 2.171c-8.325 2.95-12.248 7.669-12.248 14.731 0 8.007 5.602 13.527 17.037 16.789 4.869 1.389 6.106 1.408 10.245.163 13.137-3.954 16.527-8.389 15.815-20.689-.151-2.602-4.935-7.704-9.324-9.943-5.704-2.91-15.001-3.364-21.525-1.051m183.621-.491c.612.738.912 1.544.665 1.79-.246.247.473.518 1.598.603 1.982.149 1.976.094-.196-1.79-2.584-2.241-3.696-2.565-2.067-.603m-63.696 2.347c4.895 3.956 6.756 5.127 4.07 2.561-1.295-1.238-1.992-2.253-1.549-2.256.443-.004-.483-.679-2.058-1.5-4.124-2.151-4.237-1.856-.463 1.195m48.416-1.833c-.291.47.583.643 1.941.383 1.359-.26 2.47-.645 2.47-.856 0-.773-3.899-.356-4.411.473m9.411.703c0 .857.457 1.276 1.016.931.559-.346.758-1.047.441-1.559-.857-1.387-1.457-1.129-1.457.628m2.607.023c-.824 2.148-.837 2.116 1.143 2.87 1.342.511 1.477.391.578-.515-.644-.649-.934-1.801-.643-2.559.291-.758.304-1.378.029-1.378-.275 0-.773.712-1.107 1.582m-45.905 1.751c-.281.734.078 1.334.798 1.334.72 0 1.079-.6.798-1.334-.282-.733-.641-1.333-.798-1.333-.157 0-.516.6-.798 1.333m6.509 1.066c.709.77 1.447 1.25 1.639 1.067.593-.564-.91-2.466-1.948-2.466-.54 0-.401.63.309 1.399m57.332-.468c-.317.512-.193 1.167.274 1.456.467.289.85-.13.85-.931 0-1.686-.316-1.833-1.124-.525m-68.94.902c-.283.459.12.834.897.834s1.18-.375.897-.834c-.283-.458-.687-.833-.897-.833-.21 0-.614.375-.897.833m61.904.178c.336.544.059.989-.615.989-.674 0-.959.266-.634.592.326.325 1.35.167 2.276-.351 1.564-.876 1.566-.989.024-1.581-.977-.374-1.41-.229-1.051.351M585 498c-.589 1.1-.717 2.007-.285 2.015.432.009.184.396-.55.862-1.038.658-.927.952.5 1.325 1.51.395 1.835-.113 1.835-2.861 0-3.909-.085-3.985-1.5-1.341m59 0c.825.533 1.95.969 2.5.969s.325-.436-.5-.969c-.825-.533-1.95-.969-2.5-.969s-.325.436.5.969m-46.25 3.08c-.962.561-1.75 1.433-1.75 1.938 0 1.357 2.756.06 3.391-1.595.64-1.666.633-1.668-1.641-.343m-9.603 2.526c-.744.841-1.906 1.317-2.583 1.057-.677-.26-1.231.117-1.231.837s.6 1.079 1.334.798c1.782-.684 1.689.652-.192 2.73-1.372 1.516-1.347 1.825.25 3.079 1.583 1.242 1.638 1.218.513-.224-1.035-1.326-.976-1.855.326-2.936 1.322-1.097 1.741-1.078 2.497.117.987 1.56 1.093 1.231 1.314-4.064.14-3.361-.265-3.614-2.228-1.394m11.853-.165c0 .793.408 1.693.907 2.001.498.309.671-.34.383-1.441-.611-2.335-1.29-2.63-1.29-.56m-18.51.575c-.346.559-1.16.712-1.809.339-.65-.373-.09.52 1.243 1.984 2.548 2.796 4.209 3.731 2.087 1.174-.679-.818-.974-2.168-.654-3 .656-1.712.086-2.038-.867-.497m6.53 2.508c.696.838 1.471 1.318 1.723 1.067.693-.694-.716-2.591-1.924-2.591-.664 0-.588.574.201 1.524m12.897.726c-.818 2.453-.27 4.321 1.266 4.321 2.229 0 2.377-1.142.254-1.957-.86-.33-1.284-1.053-.941-1.607.342-.554.37-1.007.063-1.007s-.597.113-.642.25M592.5 509c.34.55.816 1 1.059 1s.441-.45.441-1-.477-1-1.059-1-.781.45-.441 1m-312.25 5.429c-2.823 1.281-3.25 1.965-3.25 5.207 0 8.675 8.78 19.505 23.353 28.805 5.154 3.29 15.183 8.608 16.145 8.561.281-.014 2.197.68 4.257 1.542 7.178 3.004 27.002 9.195 31.976 9.987l6.519 1.036c4.51.717 4.641-.062.866-5.167-4.841-6.548-26.54-25.791-42.044-37.286-15.534-11.519-29.829-16.313-37.822-12.685m317.673-1.179c-.539 1.764-.633 3.793-.152 3.313.729-.73 1.239-3.563.641-3.563-.227 0-.446.112-.489.25M589 516.378c0 .207.788.995 1.75 1.75 1.586 1.243 1.621 1.208.378-.378-1.307-1.666-2.128-2.195-2.128-1.372m13 0c0 .207.788.995 1.75 1.75 1.586 1.243 1.621 1.208.378-.378-1.307-1.666-2.128-2.195-2.128-1.372m-7 3.681c0 .582-.562.741-1.25.353-.915-.516-.959-.389-.167.474 1.209 1.318 4.721.415 3.852-.991-.765-1.238-2.435-1.125-2.435.164m5 .441c0 .825.45 1.5 1 1.5s1-.675 1-1.5-.45-1.5-1-1.5-1 .675-1 1.5m4.041 2.642c.496 1.729.719 3.438.496 3.798-.223.361.008 1.309.514 2.108.726 1.148.922 1.008.934-.673.025-3.46-1.173-8.375-2.04-8.375-.443 0-.4 1.414.096 3.142m-71.308-.018c.679.684 1.486.991 1.793.683.308-.308-.247-.867-1.233-1.243-1.425-.542-1.54-.428-.56.56m-8.226.865c-.35.566.051.734.941.393 1.732-.665 2.049-1.382.611-1.382-.518 0-1.216.445-1.552.989m71.493-.278c0 .574.788 1.662 1.75 2.417 1.619 1.269 1.64 1.222.283-.628-.807-1.1-1.594-2.187-1.75-2.417-.156-.229-.283.054-.283.628m-58.936 2.014c.818 1.313 1.754 1.857 2.283 1.328.493-.493 1.629-.664 2.525-.381 1.363.433 1.392.349.176-.512-.799-.565-1.831-.794-2.294-.508-.463.286-1.569-.081-2.458-.816-1.465-1.21-1.487-1.126-.232.889m-.415 4.525c.526 2.55.332 2.75-2.663 2.75-2.589 0-3.01.266-2.117 1.342.612.738.78 1.71.372 2.16-.407.45-.171.49.525.089.697-.401.96-1.225.586-1.83-.435-.704-.092-.875.952-.475.898.345 1.886.216 2.196-.286.31-.502 1.225-.659 2.032-.349.978.375 1.442-.057 1.389-1.294-.055-1.302-.245-1.437-.636-.45-.382.965-.972.494-1.88-1.5l-1.323-2.907.567 2.75m3.622-.158c.974.567 1.556 1.378 1.294 1.803-.262.424.178.772.979.772.801 0 1.456-.118 1.456-.262 0-.806-3.323-3.4-4.321-3.375-.649.017-.382.495.592 1.062m11.601.658c-1.214 1.548-1.189 1.607.22.509.876-.683 1.888-.946 2.25-.584.362.362.658.133.658-.508 0-1.712-1.555-1.422-3.128.583m-5.562 1.39c.837 1.351.872 2.135.117 2.641-1.659 1.112-2.559 4.235-1.141 3.957 1.277-.25 3.161-3.635 2.835-5.093-.105-.471.236-1.371.758-2 .664-.801.242-1.187-1.405-1.285-2.078-.124-2.214.085-1.164 1.78m12.411-.425c.353.921.203 1.356-.351 1.014-.534-.33-.97.453-.97 1.74 0 1.775.467 2.249 1.935 1.966 2.219-.427 3.546-1.435 1.889-1.435-.61 0-.943-.864-.739-1.921.203-1.056-.25-2.158-1.007-2.449-.942-.362-1.181-.019-.757 1.085m43.505.864c.95.991 1.942 1.587 2.205 1.324.263-.263-.514-1.074-1.726-1.803-2.107-1.265-2.128-1.243-.479.479m-35.864.921c.316.825.027 1.507-.643 1.515-.771.01-.668.372.281.985 1.349.872.725 1.43-1.25 1.118-.413-.065-.75.38-.75.989s-.631.865-1.402.569c-.771-.296-1.671-.27-1.999.058-1.008 1.009-5.672 1.193-5.058.2.317-.514-.211-.934-1.173-.934-1.63 0-1.625-.091.073-1.333 1.58-1.155 1.605-1.334.191-1.334-.897 0-1.632.375-1.632.834 0 .458-1.013.885-2.25.949-2.033.105-2.057.162-.25.597 4.482 1.078 3.078 1.875-3.714 2.109-3.954.136-7.436.496-7.738.8-.301.304 5.077.411 11.952.238 6.983-.175 12.831-.765 13.25-1.337.504-.687.996-.657 1.5.091.456.677 1.534.802 2.75.32 1.824-.724 1.78-.807-.5-.943-1.375-.082-1.937-.376-1.25-.653 1.544-.623 1.672-6.338.143-6.338-.609 0-.848.675-.531 1.5m18.907-.807c.973.254 2.323.237 3-.037.677-.274-.119-.481-1.769-.461-1.65.02-2.204.244-1.231.498m-26.726 1.238c-.317.512-.193 1.167.274 1.456.467.289.85-.13.85-.931 0-1.686-.316-1.833-1.124-.525m18.089.548c-1.815 1.374-1.812 1.41.083 1.268 1.073-.081 1.952-.732 1.952-1.447 0-.715-.038-1.286-.084-1.268-.045.017-.924.668-1.951 1.447m-49.76-.229c-.866 1.697-.254 5.011 1.056 5.711 1.265.677 1.692.432 1.803-1.037.085-1.131-.492-1.924-1.4-1.924-.962 0-1.328-.566-.969-1.5.455-1.187.031-2.27-.49-1.25m60.587.817c-1.026 1.66-.105 1.89 1.33.332.71-.769.849-1.399.309-1.399-.539 0-1.277.48-1.639 1.067m2.615 1.344c-.801.965-.839 1.616-.123 2.059.577.356 1.083.509 1.126.339.448-1.813.688-3.809.457-3.809-.159 0-.816.635-1.46 1.411m4.005.339c.048 1.056.28 1.252.585.494.279-.691.988-.959 1.576-.596.632.391.777.189.355-.493-1.078-1.745-2.605-1.384-2.516.595m-74.079.309c0 .582.45.781 1 .441s1-.816 1-1.059-.45-.441-1-.441-1 .477-1 1.059m79.013.912c-1.179.745-1.037.907.68.777 1.193-.09 1.948-.52 1.679-.956-.599-.969-.537-.973-2.359.179m-20.923 1.638c.828.997.007 1.358-3.766 1.653l-4.824.378 5.656.18c5.038.16 5.604-.021 5.177-1.653-.263-1.009-1.114-1.834-1.89-1.834-1.031 0-1.126.344-.353 1.276M582 540c0 .55.477 1 1.059 1s.781-.45.441-1-.816-1-1.059-1-.441.45-.441 1m12.813-.317c.721.289 1.584.253 1.916-.079.332-.332-.258-.568-1.312-.525-1.165.048-1.402.285-.604.604m-63.063.979c.688.278 1.813.278 2.5 0 .688-.277.125-.504-1.25-.504s-1.937.227-1.25.504m56.063.021c.721.289 1.584.253 1.916-.079.332-.332-.258-.568-1.312-.525-1.165.048-1.402.285-.604.604m-85.08 1.441c.679.684 1.486.991 1.793.683.308-.308-.247-.867-1.233-1.243-1.425-.542-1.54-.428-.56.56m5.726.943c-.363.586-.389 1.336-.059 1.666.33.33.607-.037.615-.816.013-1.167.187-1.152.985.083.828 1.282.972 1.246.985-.25.017-1.937-1.498-2.347-2.526-.683m23.236.58c.511 1.333.2 1.559-1.526 1.107-1.193-.312-2.169-.106-2.169.456 0 .563 1.143.805 2.539.538 2.316-.443 2.5-.232 2.087 2.389-.251 1.593-.046 2.623.46 2.31.503-.311.914-.126.914.411 0 .536-.337 1.164-.75 1.395-.413.23-.187.282.5.114.688-.167 1.25.357 1.25 1.164 0 .808.45 1.469 1 1.469s1 .45 1 1c0 1.253-3.682 1.323-4.447.085-.311-.503 0-1.165.691-1.47.701-.311.507-.459-.438-.336-.932.122-2.396-.679-3.253-1.779-1.384-1.777-1.486-1.794-.91-.149.385 1.098.08 2.243-.747 2.815-1 .691-.751.783.879.324 1.251-.352 2.151-.269 2 .185-.151.454-.05.906.225 1.005.275.099 1.778.665 3.341 1.26 2.539.965 2.902.845 3.418-1.127.55-2.103.613-2.115 1.339-.259.689 1.76.768 1.721.832-.411.05-1.677-.354-2.194-1.398-1.794-1.959.752-3.162-1.336-1.41-2.445 1.054-.668.907-.881-.622-.904-1.693-.026-1.77-.196-.5-1.11 1.291-.929 1.271-1.006-.149-.555-1.271.404-1.741-.266-2.051-2.922-.25-2.14-.004-3.298.649-3.055.578.216.927.932.776 1.591-.151.66.187.915.75.566 2.038-1.259.96-3.095-1.949-3.316-2.415-.184-2.853.088-2.331 1.448m30.569-.929c1.52.229 3.77.223 5-.014 1.23-.237-.014-.425-2.764-.418-2.75.008-3.756.202-2.236.432m21.005-.025c.973.254 2.323.237 3-.037.677-.274-.119-.481-1.769-.461-1.65.02-2.204.244-1.231.498M523.232 546c0 1.925.206 2.712.457 1.75.252-.962.252-2.538 0-3.5-.251-.962-.457-.175-.457 1.75M513 545c0 .55.648 1 1.441 1s1.719-.45 2.059-1c.34-.55-.309-1-1.441-1-1.132 0-2.059.45-2.059 1m-135.724 2.526c-8.768 3.687-5.664 14.664 5.8 20.513 2.114 1.078 4.537 1.961 5.384 1.961.847 0 1.54.477 1.54 1.059s.337.867.75.633c.413-.235 4.422-.145 8.91.2 4.488.344 7.949.285 7.691-.133-.258-.417.388-.759 1.435-.759 3.806 0 6.945-5.948 5.351-10.141-1.298-3.413-6.945-8.66-10.833-10.066-1.817-.657-3.304-1.581-3.304-2.053s-.402-.609-.894-.306c-.491.304-2.404-.065-4.25-.821-4.265-1.745-13.527-1.791-17.58-.087M537 546.941c0 .518.445 1.216.989 1.552.566.35.734-.051.393-.941-.665-1.732-1.382-2.049-1.382-.611m-14 4c0 .518.445 1.216.989 1.552.566.35.734-.051.393-.941-.665-1.732-1.382-2.049-1.382-.611m-2 2.452c0 .216.698.661 1.552.989.89.341 1.291.173.941-.393-.587-.951-2.493-1.406-2.493-.596M543.5 558c.34.55.816 1 1.059 1s.441-.45.441-1-.477-1-1.059-1-.781.45-.441 1m4.5.059c0 .582-.562.735-1.25.34-.687-.396-.903-.338-.48.128.424.466 1.654.912 2.733.992 1.526.112 1.717-.152.857-1.187-1.334-1.608-1.86-1.685-1.86-.273m3.596 3.552c-.465 1.212-.195 1.449 1.087.957 1.555-.597 1.549-.482-.072 1.309-1.709 1.889-1.697 2.007.306 3.079 1.385.741 2.083.767 2.083.079 0-.569-.788-1.067-1.75-1.105-1.486-.06-1.448-.192.25-.875 1.1-.443 2.45-.563 3-.269.55.295-.091-.661-1.424-2.125-2.86-3.139-2.698-3.09-3.48-1.05M545.5 564c.34.55.816 1 1.059 1s.441-.45.441-1-.477-1-1.059-1-.781.45-.441 1m8.113 6.183c.289.467.944.591 1.456.274 1.308-.808 1.161-1.124-.525-1.124-.801 0-1.22.383-.931.85m-8.8 2.5c.721.289 1.584.253 1.916-.079.332-.332-.258-.568-1.312-.525-1.165.048-1.402.285-.604.604m-54.563 1.348c-1.238.498-2.214 1.482-2.171 2.187.062 1.004.188 1.011.583.032.697-1.726 3.001-1.57 3.7.25.369.964 1.749 1.443 3.857 1.34l3.281-.16-3.25-.403c-2.918-.363-3.733-1.216-3.368-3.527.137-.871.269-.885-2.632.281m4.563-.348c.721.289 1.584.253 1.916-.079.332-.332-.258-.568-1.312-.525-1.165.048-1.402.285-.604.604m16.937-.021c.688.278 1.813.278 2.5 0 .688-.277.125-.504-1.25-.504s-1.937.227-1.25.504m16.25.171c0 .459.655.834 1.456.834.801 0 1.224-.375.941-.834-.283-.458-.938-.833-1.456-.833s-.941.375-.941.833m-11 .56c0 .216.675.652 1.5.969.825.316 1.5.139 1.5-.393 0-.533-.675-.969-1.5-.969s-1.5.177-1.5.393m6 .607c0 .55.477 1 1.059 1s.781-.45.441-1-.816-1-1.059-1-.441.45-.441 1m-21.5.778c3.244.359 3.622.597 2 1.262-1.415.58-1.544.84-.441.89.857.038 2.432-.591 3.5-1.398 1.778-1.345 1.478-1.457-3.559-1.332-4.773.118-4.971.195-1.5.578m8.5.222c-1.207.78-1.049.972.809.985 1.288.008 2.036-.427 1.691-.985-.743-1.202-.639-1.202-2.5 0m4-.607c0 .216.698.661 1.552.989.89.341 1.291.173.941-.393-.587-.951-2.493-1.406-2.493-.596M472.5 577c.34.55 1.041 1 1.559 1s.941-.45.941-1-.702-1-1.559-1-1.281.45-.941 1m7.723 1.572c-.11 1.335-.033 2.428.172 2.428.743 0 1.398-4.01.723-4.427-.381-.236-.784.664-.895 1.999m4.915.095c.609.733 1.614 1.297 2.234 1.254.703-.049.654-.27-.128-.585-.691-.279-1.048-.843-.794-1.255.254-.411-.186-.748-.978-.748-1.087 0-1.169.328-.334 1.334m-8.266.083a98.47 98.47 0 00-.382 2.75c-.14 1.1-.42 2.518-.622 3.15-.203.632.082 1.082.632 1 .55-.083.919-1.387.82-2.9-.1-1.513.238-2.75.75-2.75.511 0 .93-.45.93-1 0-1.152-1.936-1.379-2.128-.25M489 581c0 1.1.408 2 .906 2 .499 0 .671-.9.384-2-.288-1.1-.696-2-.907-2-.21 0-.383.9-.383 2m-18 2.941c0 .518.375 1.173.833 1.456.459.283.834-.14.834-.941 0-.801-.375-1.456-.834-1.456-.458 0-.833.423-.833.941m12.333 1.559c0 .72.6 1.079 1.334.798.733-.282 1.333-.641 1.333-.798 0-.157-.6-.516-1.333-.798-.734-.281-1.334.078-1.334.798m20.334 2.167c-.932.932-.832 2.333.166 2.333.459 0 .834-.675.834-1.5 0-1.699-.073-1.76-1-.833m-19.854 1.016c.721.289 1.584.253 1.916-.079.332-.332-.258-.568-1.312-.525-1.165.048-1.402.285-.604.604M877 644.966c0 2.797.272 3.034 3.478 3.034h3.479l.271 19.25.272 19.25h6l.271-19.191.272-19.191 3.728-.309c3.228-.268 3.729-.645 3.729-2.809 0-2.494-.026-2.501-10.75-2.784l-10.75-.284v3.034m31.674-2.216c-.48.809-2.066 29.246-2.133 38.231-.034 4.561.271 5.542 1.815 5.844 2.948.576 3.497-.811 3.687-9.325.211-9.447 1.033-17.757 1.691-17.099.257.257 1.911 6.235 3.675 13.283 2.779 11.105 3.493 12.858 5.344 13.128 2.343.343 2.018 1.183 6.651-17.175 1.369-5.425 2.679-10.054 2.912-10.287.233-.233.749 5.893 1.147 13.613l.723 14.037h5.869l-.586-11.25c-.323-6.187-.768-13.95-.989-17.25-.22-3.3-.419-8.39-.441-11.31l-.039-5.311-3.737.311-3.736.31-3.646 15c-2.006 8.25-3.908 14.325-4.227 13.5-.32-.825-1.742-6.225-3.161-12-4.12-16.766-4.224-17-7.512-17-1.574 0-3.063.337-3.307.75m-285.838 30.169c-10.169 3.252-17.074 8.934-20.757 17.081-2.967 6.561-2.79 7 2.813 7 4.374 0 4.957-.263 5.514-2.482.889-3.541 6.215-9.267 10.999-11.824 3.393-1.813 5.738-2.189 13.673-2.191 8.898-.003 9.929.211 14.5 3.009 5.87 3.591 9.422 9.714 9.422 16.24 0 4.59-2.565 10.673-5.644 13.381-5.49 4.832-19.069 8.598-26.481 7.346l-3.875-.655-.002 4.338-.002 4.338 6.126-.345c8.88-.5 14.091.551 19.067 3.847 14.407 9.542 13.15 32.029-2.262 40.471-4.713 2.581-6.431 2.967-13.053 2.928-6.17-.037-8.666-.554-13.068-2.707-5.12-2.506-12.806-9.024-12.806-10.861 0-.458-2.524-.833-5.608-.833h-5.609l.677 2.75c2.069 8.405 9.027 15.355 19.395 19.372 8.117 3.144 24.223 3.124 32.397-.04 13.347-5.168 20.789-14.864 21.523-28.044.537-9.623-1.776-16.114-8.857-24.855-2.815-3.474-4.96-6.418-4.768-6.54 9.206-5.883 12.825-12.452 12.84-23.306.009-6.148-.454-8.06-3.267-13.5-2.693-5.206-4.254-6.923-8.75-9.618-10.624-6.37-22.849-7.91-34.137-4.3m114.664-.353c-21.657 3.301-34.374 8.628-44.308 18.562-16.566 16.566-22.729 47.325-14.103 70.382 5.542 14.812 18.678 24.026 35.911 25.19 18.917 1.278 36.758-8.285 43.773-23.463 2.267-4.904 2.657-7.116 2.689-15.237.033-8.191-.32-10.264-2.563-15.046-6.873-14.653-19.526-22.127-37.4-22.09-10.385.021-17.848 2.248-24.048 7.175-2.049 1.628-4.09 2.961-4.535 2.961-1.471 0 3.065-11.411 6.563-16.513 3.238-4.721 10.073-10.696 15.396-13.459 6.122-3.177 17.299-6.13 25.375-6.705l8.75-.622v-6.351c0-4.465-.371-6.321-1.25-6.253-.687.053-5.3.714-10.25 1.469m75.263-.533c-27.258 4.59-45.781 28.079-45.711 57.967.063 26.428 16.532 49.48 39.592 55.418 8.693 2.238 21.624 2.052 29.651-.427C857.883 778.323 874 754.499 874 729.256c0-15.806-6.831-31.937-18.506-43.703-7.04-7.094-14.015-10.754-24.702-12.961-8.304-1.715-10.719-1.79-18.029-.559m-562.809 6.444c-14.037 2.365-24.364 9.268-30.226 20.203-8.832 16.476-9.132 42.285-.71 60.98 7.099 15.758 22.554 24.288 44.072 24.325 15.988.028 28.657-4.731 37.356-14.031C309.579 760.19 314 746.832 314 729c0-23.846-7.523-37.898-24.671-46.081-11.474-5.477-24.511-6.947-39.375-4.442m96.796-.723c-12.512.156-22.755.613-22.76 1.015-.006.402-.27 15.131-.587 32.731-.318 17.6-.264 40.663.119 51.25l.697 19.25H354l.015-18.25c.009-10.038.346-18.762.75-19.387.468-.724 6.011-1.317 15.235-1.63 7.975-.271 16.176-1.015 18.225-1.653 6.115-1.905 11.963-7.097 15.265-13.552 2.814-5.503 3.009-6.607 2.999-16.957-.009-9.108-.382-11.878-2.105-15.622-4.528-9.835-12.131-15.171-23.425-16.437-9.083-1.018-10.636-1.052-34.209-.758M30 730v52h15c8.25 0 15.068-.112 15.151-.25.083-.138.42-8.679.75-18.982l.599-18.732 12.5-.5c6.875-.275 14.869-1.144 17.764-1.931 16.089-4.375 23.158-15.359 22.04-34.246-.754-12.747-5-20.366-13.863-24.878C93.194 679.046 82.687 678 54.928 678H30v52m132.741-51.239l-40.759.261.259 51.239.259 51.239 38.5.288c21.175.158 39.977.022 41.782-.302l3.283-.589-.283-11.198-.282-11.199-26.25-.267-26.25-.266v-8.402c0-4.621.273-9.113.607-9.983.53-1.38 3.591-1.582 24-1.582H201v-20.964l-23.75-.268-23.75-.268v-15l25.328-.5 25.327-.5v-10.84c-.001-5.962-.148-10.912-.328-11-.18-.088-18.669-.042-41.086.101m253.258 50.858l.001 51.119 3.75.62c4.726.781 67.996.842 71.875.069l2.875-.573-.314-11.658c-.205-7.584-.729-11.921-1.5-12.411-.652-.415-11.198-.761-23.436-.77L447 756v-30.849c0-16.967-.289-34.27-.643-38.452l-.642-7.602-14.859-.298-14.859-.299.002 51.119m125.251-50.858l-40.25.262v102.999l41.25-.261 41.25-.261.282-11.781.282-11.781-25.782.101-25.782.101-.614-5.82c-.338-3.201-.389-7.733-.114-10.07l.5-4.25H579v-21h-46.752l-.465-5.606c-.256-3.083-.261-6.676-.011-7.983l.455-2.377 25.136-.267 25.137-.267.287-10.413c.158-5.727-.067-10.677-.5-11-.433-.323-18.899-.469-41.037-.326m266.974 8.152c-14.232 5.278-23.956 15.264-27.764 28.51-1.307 4.548-1.59 8.38-1.217 16.5.684 14.909 2.966 20.476 12.162 29.672 8.709 8.709 15.163 11.599 26.84 12.021 22.58.815 39.828-13.256 43.852-35.772 3.532-19.76-7.183-40.95-24.801-49.053-8.939-4.111-20.958-4.888-29.072-1.878M357 698.895c-2.481.69-2.5.784-2.5 12.15V722.5l6.806.297c5.473.239 7.458-.106 10.132-1.759 9.215-5.695 6.166-19.138-4.977-21.944-4.78-1.203-5.776-1.224-9.461-.199m-291.75.788l-4.25.432V723l7.75-.004c9.732-.004 13.569-1.991 15.354-7.948 1.549-5.17-.104-11.347-3.66-13.677-2.662-1.744-8.389-2.381-15.194-1.688m189.921 3.325c-13.728 6.23-17.849 26.642-9.045 44.803 8.385 17.297 27.233 17.194 35.039-.193 1.997-4.448 2.3-6.754 2.316-17.618.018-11.907-.123-12.785-2.981-18.5-2.43-4.861-3.847-6.427-7.462-8.25-5.54-2.794-12.049-2.882-17.867-.242m456.995 20.504c-7.792 1.718-14.212 5.371-17.871 10.167-2.317 3.039-2.832 4.828-3.139 10.907-.314 6.217.016 8.111 2.278 13.051 3.644 7.96 6.823 11.843 12.343 15.078 4.077 2.39 5.783 2.76 12.716 2.764 6.024.003 9.134-.515 12.558-2.093 10.827-4.99 16.949-13.902 16.949-24.673 0-18.025-16.322-29.504-35.834-25.201M46.5 814.156c-9.437 3.458-14.488 11.782-14.468 23.844.026 16.107 9.575 25.111 25.15 23.712 3.125-.28 6.163-.807 6.75-1.17 1.208-.746 1.422-6.491.303-8.094-.404-.578-3.763-1.028-7.463-1-6.276.049-6.945-.165-9.951-3.168-2.82-2.817-3.273-4.017-3.628-9.594-.726-11.403 3.909-16.16 15.134-15.528l6.07.342.823-3.929c.526-2.51.443-4.308-.231-4.982-1.459-1.459-14.833-1.773-18.489-.433m35.407 1.172c-2.869 1.515-5.435 3.987-7.353 7.084-2.546 4.111-3.004 5.965-3.372 13.663-.389 8.133-.19 9.389 2.295 14.467 3.318 6.781 8.133 10.269 15.358 11.125 13.424 1.59 23.174-8.532 23.159-24.043-.01-11.084-3.417-18.317-10.524-22.342-5.489-3.11-13.625-3.09-19.563.046m37.509-1.411c-.229.229-.416 10.916-.416 23.75V861h9.947l.276-14.735.277-14.735 7.251 14.735L144.003 861H155.036l-.268-23.641-.268-23.641-4.5-.094-4.5-.094.132 13.784c.072 7.581-.126 13.525-.441 13.21-.315-.315-3.562-6.488-7.215-13.717l-6.642-13.144-5.751-.082c-3.163-.044-5.938.107-6.167.336m51.604.835c-5.425 2.725-8.293 7.736-7.751 13.545.549 5.899 3.876 9.765 11.666 13.557 6.798 3.31 8.163 5.275 5.618 8.087-2.22 2.454-7.077 2.703-12.063.619-3.907-1.632-4.17-1.415-5.066 4.19-.745 4.656.214 5.544 7.243 6.708 10.488 1.736 19.233-2.657 21.414-10.76 2.146-7.967-1.43-13.87-11.327-18.698-6.037-2.946-7.737-5.11-5.824-7.416 1.508-1.817 8.16-2.142 11.145-.544 2.059 1.102 2.754.095 4.274-6.194.559-2.316.24-2.794-2.503-3.75-4.717-1.644-12.882-1.326-16.826.656m29.268-.063c-.25.654-.305 8.979-.122 18.5.292 15.142.585 17.737 2.334 20.706 2.88 4.889 6.303 7.058 12.257 7.763 7.419.878 13.515-1.601 17.047-6.935 2.684-4.052 2.696-4.154 2.696-22.548v-18.477l-4.5-.005-4.5-.006-.5 16.454c-.582 19.152-1.511 21.859-7.5 21.859-5.988 0-6.918-2.709-7.5-21.841l-.5-16.436-4.378-.111c-2.555-.065-4.568.383-4.834 1.077m44.156-.8c-.244.245-.444 10.944-.444 23.778V861h28.11l-.305-4.75-.305-4.75-8.228-.29-8.228-.29-.272-18.648-.272-18.648-4.806-.089c-2.643-.049-5.006.11-5.25.354m30.862.756c-.242.629-.297 2.879-.123 5l.317 3.855 5.25.302 5.25.303V861h11v-37h11.105l-.303-5.057-.302-5.058-15.877-.192c-11.161-.136-16.008.147-16.317.952m39.153-.77c-.253.252-.459 10.958-.459 23.792V861h11.036l-.268-23.602-.268-23.602-4.791-.19c-2.636-.104-4.998.017-5.25.269m19.956.042c-.228.229-.415 10.916-.415 23.75V861h9v-14.5c0-7.975.337-14.491.75-14.48.413.011 3.857 6.536 7.655 14.5L358.31 861h11.726l-.268-23.731-.268-23.732H365l-4.5-.001-.309 13.982-.31 13.982-7.19-13.917-7.191-13.917-5.335-.083c-2.934-.046-5.521.105-5.75.334m58.373.277c-5.516 1.466-12.293 7.906-14.195 13.487-3.056 8.967-1.806 19.466 3.103 26.078 4.031 5.429 9.516 7.613 18.804 7.486 4.4-.06 9.35-.51 11-.999l3-.89V833.5h-16v4.5c0 4.361.102 4.51 3.304 4.817 3.219.31 3.297.426 3 4.5-.291 3.998-.459 4.195-3.804 4.443-7.32.545-13-5.553-13-13.958 0-6.022 2.085-10.273 6.299-12.842 3.477-2.121 9.974-2.567 14.166-.973 2.771 1.053 3.308.381 4.878-6.121.59-2.442.314-2.715-3.796-3.75-5.244-1.32-11.612-1.291-16.759.078m55.217 1.487c-7.994 4.101-11.383 9.974-11.864 20.561-.444 9.765 1.41 15.217 6.847 20.128 5.844 5.28 14.56 6.994 23.269 4.576 3.404-.946 3.7-1.297 3.157-3.745-1.356-6.109-.993-5.858-8.402-5.777-6.554.072-7.153-.113-10.188-3.144-2.835-2.83-3.275-4.004-3.638-9.699-.714-11.221 4.196-16.122 15.463-15.432l5.744.351.825-3.929c.528-2.513.445-4.308-.229-4.982-.579-.579-4.301-1.205-8.271-1.39-6.33-.296-7.894.009-12.713 2.482m39.495-1.273c-3.931 1.742-7.859 5.497-10.153 9.705-1.447 2.653-1.847 5.553-1.847 13.387 0 9.101.247 10.419 2.741 14.663 8.618 14.66 30.479 12.22 36.216-4.042 1.757-4.978 2.014-14.884.527-20.239-2.572-9.26-9.748-14.865-18.984-14.826-3.025.012-6.85.621-8.5 1.352m38.75-.685l-3.25.404V861h11v-9c0-8.911.024-9 2.477-9 3.209 0 4.973 2.803 7.081 11.25l1.685 6.75h5.379c2.958 0 5.378-.163 5.378-.363 0-2.178-4.507-17.702-5.656-19.482-1.393-2.156-1.344-2.527.612-4.609 4.774-5.081 4.676-14.765-.195-19.265-4.011-3.706-12.91-4.997-24.511-3.558m39-.062l-3.25.466V861h11v-15.721l5.069-.601c9.961-1.18 15.286-6.875 15.333-16.403.028-5.577-1.73-8.938-6.565-12.548-2.617-1.953-14.462-3.087-21.587-2.066m44.724 1.589c-5.458 2.759-9.48 8.923-11.1 17.013-.96 4.79-.879 6.883.484 12.403.901 3.652 2.824 8.195 4.274 10.096 6.338 8.309 20.083 9.556 28.381 2.574 8.929-7.514 10.591-25.63 3.363-36.665-4.843-7.392-16.558-9.893-25.402-5.421m40.276-1.527l-3.25.404V861h11v-9c0-8.911.024-9 2.477-9 2.73 0 4.883 2.71 5.959 7.5a240.49 240.49 0 001.658 6.75l.983 3.75h5.529c4.795 0 5.46-.232 5.014-1.75-.283-.962-1.246-4.675-2.14-8.25-.894-3.575-2.478-7.962-3.519-9.75-1.042-1.788-1.452-3.25-.913-3.25 2.204 0 4.945-6.55 4.948-11.827.003-4.516-.426-5.757-2.825-8.156-4.442-4.441-12.517-5.833-24.921-4.294m44.26 4.777c-.77 2.75-3.255 11.75-5.522 20-2.267 8.25-4.542 16.305-5.055 17.899-1.435 4.458-1.296 4.601 4.459 4.601h5.392l1.4-5.75 1.399-5.75 5.657-.298 5.657-.299 1.111 4.299c.611 2.364 1.34 5.086 1.619 6.048.403 1.39 1.627 1.75 5.94 1.75 3.726 0 5.433-.399 5.433-1.27 0-.699-2.855-11.342-6.345-23.652l-6.345-22.382-6.7-.098-6.7-.098-1.4 5m30.795-3.855c-.241.629-.296 2.879-.122 5l.317 3.855 5.75.3 5.75.3V861.105l5.071-.303 5.071-.302.179-18 .179-18 5.5-.5 5.5-.5v-9.567l-16.378-.217c-11.556-.152-16.507.121-16.817.929m40.178-.795c-.266.266-.483 10.983-.483 23.817V861h10.036l-.268-23.61-.268-23.61-4.267-.206c-2.347-.114-4.484.011-4.75.276m28.424 1.478c-2.892 1.527-5.438 3.991-7.407 7.169-2.623 4.233-3.044 5.943-3.348 13.619-.304 7.688-.036 9.459 2.162 14.258 5.948 12.992 22.263 15.59 32.309 5.144 5.038-5.239 6.852-11.639 6.136-21.648-.608-8.489-4.332-15.214-10.294-18.592-5.484-3.105-13.622-3.085-19.558.05m37.516-1.411c-.233.229-.423 10.916-.423 23.75V861h9.947l.276-14.665.277-14.665 7.218 14.665L855.936 861h11.1l-.268-23.641-.268-23.641-4.5-.102-4.5-.102-.185 12.993c-.102 7.146-.215 13.384-.25 13.862-.036.477-3.149-5.373-6.917-13l-6.853-13.869h-5.725c-3.148 0-5.915.188-6.147.417m-744.306 9.714C83.88 825.898 82 830.958 82 837.403c0 6.282 1.066 9.663 3.96 12.557 2.338 2.338 7.62 2.675 10.279.656 4.693-3.564 6.14-14.982 2.824-22.285-2.816-6.203-7.289-7.962-11.946-4.7m404 0c-3.237 2.267-5.117 7.327-5.117 13.772 0 9.172 3.369 14.597 9.066 14.597 4.487 0 6.496-1.448 8.314-5.991 5.4-13.497-3.016-28.855-12.263-22.378M534 828c0 5.893.049 6 2.777 6 4.106 0 7.223-2.589 7.223-6s-3.117-6-7.223-6c-2.728 0-2.777.107-2.777 6m39 .56v6.561l3.719-.311c9.235-.77 7.576-12.81-1.766-12.81-1.739 0-1.953.719-1.953 6.56m42.217-4.999C611.592 826.1 610 830.353 610 837.5c0 10 3.056 14.5 9.845 14.5 10.366 0 12.424-24.367 2.443-28.915-3.193-1.454-4.435-1.371-7.071.476M658 828v6h3c3.439 0 7-3.052 7-6s-3.561-6-7-6h-3v6m141.117-4.369c-6.705 4.696-6.892 23.743-.267 27.289 7.34 3.928 14.15-2.552 14.15-13.465 0-11.261-7.244-18.475-13.883-13.824m-98.422 6.619a215.656 215.656 0 01-1.256 6.5c-.679 3.204-.637 3.25 3.003 3.25 3.049 0 3.602-.305 3.171-1.75-.288-.962-1.046-3.888-1.686-6.5-1.36-5.55-2.439-6.05-3.232-1.5" fill="undefined" fill-rule="evenodd"/></svg>